<svg xmlns="http://www.w3.org/2000/svg" xmlns:xlink="http://www.w3.org/1999/xlink" viewBox="0 0 480 480" xmlns:v="https://vecta.io/nano"><path d="M472 76h-88V12a8 8 0 0 0-8-8H104a8 8 0 0 0-8 8v112H8a8 8 0 0 0-8 8v328a8 8 0 1 0 16 0V140h80v328a8 8 0 0 0 8 8h272a8 8 0 0 0 8-8V92h80v368a8 8 0 1 0 16 0V84a8 8 0 0 0-8-8zM232 460h-32v-72h32v72zm48 0h-32v-72h32v72zm88 0h-72v-80a8 8 0 0 0-8-8h-96a8 8 0 0 0-8 8v80h-72V20h256v440z"/><use xlink:href="#B"/><use xlink:href="#B" x="80"/><use xlink:href="#B" x="160"/><use xlink:href="#C"/><use xlink:href="#C" x="80"/><use xlink:href="#C" x="160"/><use xlink:href="#C" y="80"/><use xlink:href="#C" x="80" y="80"/><use xlink:href="#C" x="160" y="80"/><use xlink:href="#C" y="160"/><use xlink:href="#C" x="80" y="160"/><use xlink:href="#C" x="160" y="160"/><use xlink:href="#D"/><use xlink:href="#D" x="32"/><use xlink:href="#D" y="32"/><use xlink:href="#D" x="32" y="32"/><use xlink:href="#D" y="64"/><use xlink:href="#D" x="32" y="64"/><use xlink:href="#D" y="96"/><use xlink:href="#D" x="32" y="96"/><use xlink:href="#D" y="128"/><use xlink:href="#D" x="32" y="128"/><use xlink:href="#D" y="160"/><use xlink:href="#D" x="32" y="160"/><use xlink:href="#D" y="192"/><use xlink:href="#D" x="32" y="192"/><use xlink:href="#D" y="224"/><use xlink:href="#D" x="32" y="224"/><use xlink:href="#D" y="256"/><use xlink:href="#D" x="32" y="256"/><use xlink:href="#E"/><use xlink:href="#E" y="64"/><use xlink:href="#E" y="128"/><use xlink:href="#E" y="192"/><use xlink:href="#E" y="256"/><defs ><path id="B" d="M184 36h-48a8 8 0 0 0-8 8v48a8 8 0 0 0 8 8h48a8 8 0 0 0 8-8V44a8 8 0 0 0-8-8zm-8 48h-32V52h32v32z"/><path id="C" d="M184 116h-48a8 8 0 0 0-8 8v48a8 8 0 0 0 8 8h48a8 8 0 0 0 8-8v-48a8 8 0 0 0-8-8zm-8 48h-32v-32h32v32z"/><path id="D" d="M48 156h-8a8 8 0 0 0-8 8v8a8 8 0 0 0 8 8h8a8 8 0 0 0 8-8v-8a8 8 0 0 0-8-8z"/><path id="E" d="M440 108h-32a8 8 0 0 0-8 8v32a8 8 0 0 0 8 8h32a8 8 0 0 0 8-8v-32a8 8 0 0 0-8-8zm-8 32h-16v-16h16v16z"/></defs></svg>