<svg xmlns="http://www.w3.org/2000/svg" viewBox="0 0 512 512" xmlns:v="https://vecta.io/nano"><path d="M502 381.872H395.696a29.82 29.82 0 0 0 1.718-9.99v-10h49.336c35.695 0 64.735-29.04 64.735-64.735 0-17.3-6.733-33.548-18.96-45.775l-90.9-90.9c-32.465-32.465-75.63-50.345-121.543-50.345H9.994c-5.517 0-10 4.473-10 10s4.472 10 10 10h270.098c40.576 0 78.723 15.8 107.414 44.493l11.45 11.45H283.843c-20.932 0-37.96 17.03-37.96 37.96s17.03 37.96 37.96 37.96H474.88l3.517 3.517c8.452 8.453 13.1 19.692 13.1 31.647 0 24.678-20.078 44.756-44.756 44.756H9.994c-5.517 0-10 4.473-10 10s4.472 10 10 10h44.47v10c0 3.502.6 6.863 1.718 10H10.5c-5.517 0-10 4.473-10 10s4.472 10 10 10h167.83c5.517 0 10-4.473 10-10s-4.472-10-10-10h-65.653a29.82 29.82 0 0 0 1.718-9.99v-10h223.07v10c0 3.502.6 6.863 1.718 10h-82.9c-5.517 0-10 4.473-10 10s4.472 10 10 10H502c5.517 0 10-4.473 10-10s-4.472-10-10-10zM283.843 242.014c-9.915 0-17.982-8.067-17.982-17.982s8.067-17.982 17.982-17.982h135.094l35.963 35.963H283.843zM94.424 371.882c0 5.508-4.48 10-10 10s-10-4.48-10-10v-10h19.98v10zm283 0c0 5.508-4.48 10-10 10s-10-4.48-10-10v-10h19.98v10zM224.362 384.8c-1.858-1.858-4.435-2.927-7.063-2.927a10.06 10.06 0 0 0-7.063 2.927 10.07 10.07 0 0 0-2.927 7.063 10.06 10.06 0 0 0 2.927 7.062c1.858 1.858 4.435 2.928 7.063 2.928s5.205-1.07 7.063-2.928 2.927-4.435 2.927-7.062a10.07 10.07 0 0 0-2.927-7.063zm-58.526-198.73H48.138c-5.517 0-10 4.473-10 10s4.472 10 10 10h117.698c9.915 0 17.982 8.067 17.982 17.982s-8.067 17.982-17.983 17.982H9.994c-5.517 0-10 4.473-10 10a9.99 9.99 0 0 0 9.99 9.99h155.842c20.932 0 37.96-17.03 37.96-37.96s-17.03-37.963-37.96-37.963zm-148.783 2.928a10.04 10.04 0 0 0-7.063-2.927c-2.627 0-5.205 1.068-7.063 2.927S0 193.433 0 196.06a10.07 10.07 0 0 0 2.927 7.062 10.07 10.07 0 0 0 7.063 2.928 10.05 10.05 0 0 0 7.063-2.928 10.02 10.02 0 0 0 2.927-7.062c0-2.627-1.06-5.204-2.927-7.062z"/></svg>